<svg width="103" height="27" viewBox="0 0 103 27" fill="none" xmlns="http://www.w3.org/2000/svg">
<path d="M0.59082 10.0455C0.59082 8.14451 0.59082 7.19404 0.751581 6.40428C1.39181 3.25905 3.84987 0.800988 6.9951 0.16076C7.78486 0 8.73533 0 10.6363 0H15.9545C17.8554 0 18.8059 0 19.5956 0.16076C22.7409 0.800988 25.1989 3.25905 25.8391 6.40428C25.9999 7.19404 25.9999 8.14451 25.9999 10.0455V10.0455C25.9999 11.9464 25.9999 12.8969 25.8391 13.6866C25.1989 16.8319 22.7409 19.2899 19.5956 19.9301C18.8059 20.0909 17.8554 20.0909 15.9545 20.0909H10.6363C8.73533 20.0909 7.78486 20.0909 6.9951 19.9301C3.84987 19.2899 1.39181 16.8319 0.751581 13.6866C0.59082 12.8969 0.59082 11.9464 0.59082 10.0455V10.0455Z" fill="url(#paint0_linear_48_3)"/>
<path d="M0.012901 1.50377C0.0064484 0.951717 0.531546 0.547894 1.06344 0.69586V0.69586C1.26804 0.752778 1.44297 0.88609 1.55212 1.06827L1.76298 1.42023C2.0983 1.97992 2.70285 2.32247 3.3553 2.32247H19.6315C21.834 2.32247 22.9352 2.32247 23.7794 2.74429C24.5543 3.13147 25.1825 3.7597 25.5697 4.53456C25.9915 5.37875 25.9915 6.47999 25.9915 8.68247V17.0325C25.9915 19.235 25.9915 20.3362 25.5697 21.1804C25.1825 21.9553 24.5543 22.5835 23.7794 22.9707C22.9352 23.3925 21.834 23.3925 19.6315 23.3925H6.55485C4.3755 23.3925 3.28582 23.3925 2.4467 22.9768C1.67639 22.5952 1.04951 21.9756 0.65894 21.2098C0.233483 20.3756 0.220747 19.286 0.195276 17.1068L0.012901 1.50377Z" fill="url(#paint1_linear_48_3)"/>
<path d="M11.8931 6.24426C11.8931 6.98064 12.4901 7.5776 13.2264 7.5776C13.9628 7.5776 14.5598 6.98064 14.5598 6.24426C14.5598 5.50788 13.9628 4.91093 13.2264 4.91093C12.4901 4.91093 11.8931 5.50788 11.8931 6.24426ZM9.30465 8.85879V9.10879H9.38034L9.44333 9.0668L9.30465 8.85879ZM0.0769043 9.10879H9.30465V8.60879H0.0769043V9.10879ZM9.44333 9.0668L13.3651 6.45228L13.0878 6.03625L9.16598 8.65078L9.44333 9.0668Z" fill="url(#paint2_linear_48_3)"/>
<path d="M11.8547 19.1631C11.8547 18.4267 12.4516 17.8298 13.188 17.8298C13.9244 17.8298 14.5213 18.4267 14.5213 19.1631C14.5213 19.8995 13.9244 20.4964 13.188 20.4964C12.4516 20.4964 11.8547 19.8995 11.8547 19.1631ZM9.2662 16.5486V16.2986H9.3419L9.40488 16.3405L9.2662 16.5486ZM0.0769043 16.2986H9.2662V16.7986H0.0769043V16.2986ZM9.40488 16.3405L13.3267 18.9551L13.0493 19.3711L9.12753 16.7566L9.40488 16.3405Z" fill="url(#paint3_linear_48_3)"/>
<path d="M16.8406 13.7995C16.9787 13.7995 17.0906 13.6876 17.0906 13.5495C17.0906 13.4115 16.9787 13.2995 16.8406 13.2995V13.7995ZM12.4959 13.5495L12.389 13.7755L12.4398 13.7995H12.4959V13.5495ZM8.92016 11.8578L9.02708 11.6318L8.97632 11.6078H8.92016V11.8578ZM12.4959 13.7995H16.8406V13.2995H12.4959V13.7995ZM0.0769043 12.1078H8.92016V11.6078H0.0769043V12.1078ZM8.81324 12.0838L12.389 13.7755L12.6028 13.3236L9.02708 11.6318L8.81324 12.0838Z" fill="url(#paint4_linear_48_3)"/>
<path d="M16.8022 11.6078C16.9403 11.6078 17.0522 11.7197 17.0522 11.8578C17.0522 11.9959 16.9403 12.1078 16.8022 12.1078V11.6078ZM12.4575 11.8578L12.3505 11.6318L12.4013 11.6078H12.4575V11.8578ZM8.88171 13.5496L8.98863 13.7755L8.93787 13.7996H8.88171V13.5496ZM12.4575 11.6078H16.8022V12.1078H12.4575V11.6078ZM0.0769043 13.2996H8.88171V13.7996H0.0769043V13.2996ZM8.7748 13.3236L12.3505 11.6318L12.5644 12.0838L8.98863 13.7755L8.7748 13.3236Z" fill="url(#paint5_linear_48_3)"/>
<g filter="url(#filter0_d_48_3)">
<path d="M36.332 16V9.772H36.728V16H36.332ZM36.524 8.14C36.42 8.14 36.328 8.1 36.248 8.02C36.168 7.94 36.128 7.852 36.128 7.756C36.128 7.644 36.168 7.552 36.248 7.48C36.328 7.4 36.42 7.36 36.524 7.36C36.636 7.36 36.728 7.4 36.8 7.48C36.88 7.552 36.92 7.64 36.92 7.744C36.92 7.848 36.88 7.94 36.8 8.02C36.728 8.1 36.636 8.14 36.524 8.14ZM40.0146 16V7.6H40.4226V15.628H45.3426V16H40.0146ZM47.767 13.84L47.755 13.324L53.323 7.6H53.827L50.071 11.476L49.831 11.716L47.767 13.84ZM47.419 16V7.6H47.827V16H47.419ZM53.587 16L49.687 11.56L49.963 11.284L54.091 16H53.587ZM59.3815 16.048C58.7655 16.048 58.1935 15.944 57.6655 15.736C57.1375 15.52 56.6775 15.22 56.2855 14.836C55.8935 14.452 55.5895 14.004 55.3735 13.492C55.1575 12.972 55.0495 12.408 55.0495 11.8C55.0495 11.192 55.1575 10.632 55.3735 10.12C55.5895 9.6 55.8935 9.148 56.2855 8.764C56.6775 8.38 57.1375 8.084 57.6655 7.876C58.1935 7.66 58.7655 7.552 59.3815 7.552C60.0055 7.552 60.5815 7.66 61.1095 7.876C61.6375 8.084 62.0935 8.38 62.4775 8.764C62.8695 9.148 63.1735 9.6 63.3895 10.12C63.6135 10.632 63.7255 11.192 63.7255 11.8C63.7255 12.408 63.6135 12.972 63.3895 13.492C63.1735 14.004 62.8695 14.452 62.4775 14.836C62.0935 15.22 61.6375 15.52 61.1095 15.736C60.5815 15.944 60.0055 16.048 59.3815 16.048ZM59.3815 15.676C59.9415 15.676 60.4615 15.58 60.9415 15.388C61.4215 15.196 61.8375 14.924 62.1895 14.572C62.5495 14.22 62.8255 13.812 63.0175 13.348C63.2175 12.876 63.3175 12.36 63.3175 11.8C63.3175 11.24 63.2175 10.728 63.0175 10.264C62.8255 9.792 62.5495 9.38 62.1895 9.028C61.8375 8.676 61.4215 8.404 60.9415 8.212C60.4615 8.02 59.9415 7.924 59.3815 7.924C58.8295 7.924 58.3135 8.02 57.8335 8.212C57.3535 8.404 56.9335 8.676 56.5735 9.028C56.2215 9.38 55.9455 9.792 55.7455 10.264C55.5535 10.728 55.4575 11.24 55.4575 11.8C55.4575 12.36 55.5535 12.876 55.7455 13.348C55.9455 13.812 56.2215 14.22 56.5735 14.572C56.9335 14.924 57.3535 15.196 57.8335 15.388C58.3135 15.58 58.8295 15.676 59.3815 15.676ZM66.3644 16V7.6H66.7004L70.6604 14.476H70.4804L74.4164 7.6H74.7524L74.7644 16H74.3684L74.3564 8.2H74.4884L70.6724 14.836H70.4564L66.6164 8.2H66.7604V16H66.3644ZM78.2571 16V7.6H81.1731C81.8691 7.6 82.4651 7.712 82.9611 7.936C83.4651 8.16 83.8491 8.48 84.1131 8.896C84.3771 9.304 84.5091 9.8 84.5091 10.384C84.5091 10.968 84.3771 11.468 84.1131 11.884C83.8491 12.3 83.4651 12.62 82.9611 12.844C82.4651 13.068 81.8691 13.18 81.1731 13.18H78.4851L78.6651 12.988V16H78.2571ZM78.6651 12.988L78.4851 12.808H81.1971C82.1411 12.808 82.8611 12.596 83.3571 12.172C83.8611 11.748 84.1131 11.152 84.1131 10.384C84.1131 9.616 83.8611 9.024 83.3571 8.608C82.8611 8.184 82.1411 7.972 81.1971 7.972H78.4851L78.6651 7.78V12.988ZM90.8003 16V14.548L90.7883 14.332V11.968C90.7883 11.352 90.6243 10.884 90.2963 10.564C89.9683 10.244 89.4923 10.084 88.8683 10.084C88.4123 10.084 87.9963 10.164 87.6203 10.324C87.2443 10.476 86.9203 10.676 86.6483 10.924L86.4323 10.636C86.7283 10.356 87.0923 10.136 87.5243 9.976C87.9563 9.808 88.4083 9.724 88.8803 9.724C89.6243 9.724 90.1923 9.916 90.5843 10.3C90.9843 10.676 91.1843 11.232 91.1843 11.968V16H90.8003ZM88.4843 16.036C88.0123 16.036 87.6083 15.964 87.2723 15.82C86.9443 15.676 86.6923 15.472 86.5163 15.208C86.3403 14.936 86.2523 14.628 86.2523 14.284C86.2523 13.98 86.3243 13.7 86.4683 13.444C86.6123 13.18 86.8483 12.972 87.1763 12.82C87.5123 12.66 87.9603 12.58 88.5203 12.58H90.9323V12.904H88.5203C87.8403 12.904 87.3563 13.032 87.0683 13.288C86.7883 13.544 86.6483 13.868 86.6483 14.26C86.6483 14.7 86.8123 15.052 87.1403 15.316C87.4683 15.572 87.9243 15.7 88.5083 15.7C89.0843 15.7 89.5603 15.572 89.9363 15.316C90.3123 15.052 90.5963 14.68 90.7883 14.2L90.9203 14.464C90.7603 14.936 90.4723 15.316 90.0563 15.604C89.6403 15.892 89.1163 16.036 88.4843 16.036ZM93.7926 18.364C93.5126 18.364 93.2526 18.316 93.0126 18.22C92.7726 18.132 92.5686 17.996 92.4006 17.812L92.6286 17.5C92.7966 17.676 92.9726 17.804 93.1566 17.884C93.3406 17.972 93.5526 18.016 93.7926 18.016C94.0966 18.016 94.3646 17.932 94.5966 17.764C94.8286 17.596 95.0446 17.288 95.2446 16.84L95.7006 15.856L95.7606 15.76L98.4726 9.772H98.8926L95.6286 16.936C95.4686 17.288 95.2926 17.568 95.1006 17.776C94.9166 17.992 94.7166 18.144 94.5006 18.232C94.2846 18.32 94.0486 18.364 93.7926 18.364ZM95.7126 16.144L92.8086 9.772H93.2406L95.9406 15.736L95.7126 16.144Z" fill="#0D0101"/>
<path d="M36.332 16H35.332V17H36.332V16ZM36.332 9.772V8.772H35.332V9.772H36.332ZM36.728 9.772H37.728V8.772H36.728V9.772ZM36.728 16V17H37.728V16H36.728ZM36.248 8.02L35.5409 8.72711L35.5409 8.72711L36.248 8.02ZM36.248 7.48L36.917 8.22329L36.9365 8.2057L36.9551 8.18711L36.248 7.48ZM36.8 7.48L36.0567 8.14896L36.0919 8.18809L36.131 8.22329L36.8 7.48ZM36.8 8.02L36.0929 7.31289L36.0743 7.33149L36.0567 7.35103L36.8 8.02ZM37.332 16V9.772H35.332V16H37.332ZM36.332 10.772H36.728V8.772H36.332V10.772ZM35.728 9.772V16H37.728V9.772H35.728ZM36.728 15H36.332V17H36.728V15ZM36.524 7.14C36.604 7.14 36.6913 7.15621 36.7757 7.19293C36.8585 7.22894 36.9177 7.27545 36.9551 7.31289L35.5409 8.72711C35.7903 8.97648 36.1302 9.14 36.524 9.14V7.14ZM36.9551 7.31289C36.9857 7.34351 37.0311 7.39816 37.0684 7.4802C37.107 7.56522 37.128 7.66023 37.128 7.756H35.128C35.128 8.16417 35.3094 8.4956 35.5409 8.72711L36.9551 7.31289ZM37.128 7.756C37.128 7.82118 37.1158 7.90802 37.0751 8.00173C37.0339 8.0964 36.9755 8.17061 36.917 8.22329L35.579 6.73671C35.2788 7.00692 35.128 7.37358 35.128 7.756H37.128ZM36.9551 8.18711C36.9177 8.22455 36.8585 8.27106 36.7757 8.30707C36.6913 8.34379 36.604 8.36 36.524 8.36V6.36C36.1302 6.36 35.7903 6.52351 35.5409 6.77289L36.9551 8.18711ZM36.524 8.36C36.4588 8.36 36.372 8.34781 36.2783 8.30707C36.1836 8.26591 36.1094 8.2075 36.0567 8.14896L37.5433 6.81103C37.2731 6.5108 36.9064 6.36 36.524 6.36V8.36ZM36.131 8.22329C36.0804 8.17772 36.0227 8.10858 35.9796 8.0138C35.9362 7.91819 35.92 7.82375 35.92 7.744H37.92C37.92 7.34546 37.7513 6.99083 37.469 6.73671L36.131 8.22329ZM35.92 7.744C35.92 7.66396 35.9362 7.57672 35.9729 7.49227C36.0089 7.40946 36.0554 7.35034 36.0929 7.31289L37.5071 8.72711C37.7565 8.47773 37.92 8.13784 37.92 7.744H35.92ZM36.0567 7.35103C36.1094 7.2925 36.1836 7.23409 36.2783 7.19293C36.372 7.15219 36.4588 7.14 36.524 7.14V9.14C36.9064 9.14 37.2731 8.9892 37.5433 8.68896L36.0567 7.35103ZM40.0146 16H39.0146V17H40.0146V16ZM40.0146 7.6V6.6H39.0146V7.6H40.0146ZM40.4226 7.6H41.4226V6.6H40.4226V7.6ZM40.4226 15.628H39.4226V16.628H40.4226V15.628ZM45.3426 15.628H46.3426V14.628H45.3426V15.628ZM45.3426 16V17H46.3426V16H45.3426ZM41.0146 16V7.6H39.0146V16H41.0146ZM40.0146 8.6H40.4226V6.6H40.0146V8.6ZM39.4226 7.6V15.628H41.4226V7.6H39.4226ZM40.4226 16.628H45.3426V14.628H40.4226V16.628ZM44.3426 15.628V16H46.3426V15.628H44.3426ZM45.3426 15H40.0146V17H45.3426V15ZM47.767 13.84L46.7672 13.8632L46.8227 16.2467L48.4841 14.5369L47.767 13.84ZM47.755 13.324L47.0382 12.6267L46.7455 12.9276L46.7552 13.3472L47.755 13.324ZM53.323 7.6V6.6H52.9006L52.6062 6.90273L53.323 7.6ZM53.827 7.6L54.5451 8.2959L56.1885 6.6H53.827V7.6ZM50.071 11.476L50.7781 12.1831L50.7836 12.1775L50.7891 12.1719L50.071 11.476ZM49.831 11.716L49.1239 11.0089L49.1188 11.014L49.1138 11.0191L49.831 11.716ZM47.419 16H46.419V17H47.419V16ZM47.419 7.6V6.6H46.419V7.6H47.419ZM47.827 7.6H48.827V6.6H47.827V7.6ZM47.827 16V17H48.827V16H47.827ZM53.587 16L52.8357 16.6599L53.1344 17H53.587V16ZM49.687 11.56L48.9799 10.8529L48.3171 11.5157L48.9357 12.2199L49.687 11.56ZM49.963 11.284L50.7154 10.6254L50.0115 9.82121L49.2559 10.5769L49.963 11.284ZM54.091 16V17H56.2953L54.8434 15.3414L54.091 16ZM48.7667 13.8168L48.7547 13.3008L46.7552 13.3472L46.7672 13.8632L48.7667 13.8168ZM48.4718 14.0213L54.0398 8.29727L52.6062 6.90273L47.0382 12.6267L48.4718 14.0213ZM53.323 8.6H53.827V6.6H53.323V8.6ZM53.1088 6.9041L49.3528 10.7801L50.7891 12.1719L54.5451 8.2959L53.1088 6.9041ZM49.3639 10.7689L49.1239 11.0089L50.5381 12.4231L50.7781 12.1831L49.3639 10.7689ZM49.1138 11.0191L47.0498 13.1431L48.4841 14.5369L50.5481 12.4129L49.1138 11.0191ZM48.419 16V7.6H46.419V16H48.419ZM47.419 8.6H47.827V6.6H47.419V8.6ZM46.827 7.6V16H48.827V7.6H46.827ZM47.827 15H47.419V17H47.827V15ZM54.3383 15.3401L50.4383 10.9001L48.9357 12.2199L52.8357 16.6599L54.3383 15.3401ZM50.3941 12.2671L50.6701 11.9911L49.2559 10.5769L48.9799 10.8529L50.3941 12.2671ZM49.2105 11.9426L53.3385 16.6586L54.8434 15.3414L50.7154 10.6254L49.2105 11.9426ZM54.091 15H53.587V17H54.091V15ZM57.6655 15.736L57.2868 16.6616L57.2989 16.6664L57.6655 15.736ZM56.2855 14.836L55.5857 15.5504L56.2855 14.836ZM55.3735 13.492L54.45 13.8756L54.4521 13.8807L55.3735 13.492ZM55.3735 10.12L56.2948 10.5087L56.297 10.5036L55.3735 10.12ZM56.2855 8.764L55.5857 8.04964V8.04964L56.2855 8.764ZM57.6655 7.876L58.032 8.80649L58.0441 8.80155L57.6655 7.876ZM61.1095 7.876L60.7308 8.80163L60.7429 8.80641L61.1095 7.876ZM62.4775 8.764L61.7703 9.47114L61.7777 9.47836L62.4775 8.764ZM63.3895 10.12L62.466 10.5036L62.4696 10.5122L62.4733 10.5208L63.3895 10.12ZM63.3895 13.492L62.471 13.0964L62.4681 13.1033L63.3895 13.492ZM62.4775 14.836L61.7777 14.1216L61.7704 14.1289L62.4775 14.836ZM61.1095 15.736L61.476 16.6665L61.4881 16.6615L61.1095 15.736ZM60.9415 15.388L60.5701 14.4595L60.9415 15.388ZM62.1895 14.572L61.4903 13.8569L61.4824 13.8649L62.1895 14.572ZM63.0175 13.348L62.0967 12.9578L62.0935 12.9656L63.0175 13.348ZM63.0175 10.264L62.0912 10.6408L62.0951 10.6504L62.0991 10.6598L63.0175 10.264ZM62.1895 9.028L61.4823 9.73515L61.4904 9.74301L62.1895 9.028ZM60.9415 8.212L61.3129 7.28352V7.28352L60.9415 8.212ZM57.8335 8.212L57.4621 7.28352V7.28352L57.8335 8.212ZM56.5735 9.028L55.8743 8.31295L55.8664 8.32089L56.5735 9.028ZM55.7455 10.264L54.8247 9.87384L54.8215 9.88165L55.7455 10.264ZM55.7455 13.348L54.8192 13.7248L54.8231 13.7344L54.8271 13.7438L55.7455 13.348ZM56.5735 14.572L55.8663 15.2792L55.8744 15.287L56.5735 14.572ZM57.8335 15.388L57.4621 16.3165L57.8335 15.388ZM59.3815 15.048C58.8801 15.048 58.4336 14.9638 58.032 14.8056L57.2989 16.6664C57.9533 16.9242 58.6508 17.048 59.3815 17.048V15.048ZM58.0441 14.8105C57.631 14.6414 57.2812 14.4116 56.9852 14.1216L55.5857 15.5504C56.0737 16.0284 56.644 16.3986 57.2868 16.6615L58.0441 14.8105ZM56.9852 14.1216C56.6892 13.8316 56.46 13.4947 56.2948 13.1033L54.4521 13.8807C54.719 14.5133 55.0977 15.0724 55.5857 15.5504L56.9852 14.1216ZM56.297 13.1084C56.1354 12.7194 56.0495 12.2869 56.0495 11.8H54.0495C54.0495 12.5291 54.1796 13.2246 54.45 13.8756L56.297 13.1084ZM56.0495 11.8C56.0495 11.3129 56.1354 10.8865 56.2948 10.5087L54.4521 9.7313C54.1795 10.3775 54.0495 11.0711 54.0495 11.8H56.0495ZM56.297 10.5036C56.4628 10.1045 56.6918 9.76578 56.9852 9.47836L55.5857 8.04964C55.0951 8.53022 54.7162 9.09555 54.45 9.73639L56.297 10.5036ZM56.9852 9.47836C57.2784 9.19114 57.6241 8.96711 58.032 8.80641L57.2989 6.94559C56.6509 7.20089 56.0765 7.56886 55.5857 8.04964L56.9852 9.47836ZM58.0441 8.80155C58.4426 8.63852 58.8849 8.552 59.3815 8.552V6.552C58.6461 6.552 57.9443 6.68148 57.2868 6.95045L58.0441 8.80155ZM59.3815 8.552C59.8879 8.552 60.3339 8.63914 60.7308 8.80155L61.4881 6.95045C60.8291 6.68086 60.1231 6.552 59.3815 6.552V8.552ZM60.7429 8.80641C61.1492 8.96643 61.4877 9.18847 61.7704 9.47111L63.1846 8.05689C62.6992 7.57153 62.1258 7.20157 61.476 6.94559L60.7429 8.80641ZM61.7777 9.47836C62.0711 9.76578 62.3002 10.1045 62.466 10.5036L64.313 9.73639C64.0468 9.09555 63.6678 8.53022 63.1772 8.04964L61.7777 9.47836ZM62.4733 10.5208C62.6373 10.8957 62.7255 11.3177 62.7255 11.8H64.7255C64.7255 11.0663 64.5896 10.3683 64.3056 9.71918L62.4733 10.5208ZM62.7255 11.8C62.7255 12.2821 62.6373 12.7103 62.4711 13.0964L64.3079 13.8876C64.5896 13.2337 64.7255 12.5339 64.7255 11.8H62.7255ZM62.4681 13.1033C62.303 13.4947 62.0737 13.8316 61.7777 14.1216L63.1772 15.5504C63.6652 15.0724 64.044 14.5133 64.3108 13.8807L62.4681 13.1033ZM61.7704 14.1289C61.485 14.4143 61.1422 14.6422 60.7308 14.8105L61.4881 16.6615C62.1327 16.3978 62.702 16.0257 63.1846 15.5431L61.7704 14.1289ZM60.7429 14.8056C60.3428 14.9632 59.8925 15.048 59.3815 15.048V17.048C60.1184 17.048 60.8202 16.9248 61.476 16.6664L60.7429 14.8056ZM59.3815 16.676C60.058 16.676 60.7052 16.5595 61.3129 16.3165L60.5701 14.4595C60.2177 14.6005 59.8249 14.676 59.3815 14.676V16.676ZM61.3129 16.3165C61.9137 16.0762 62.4451 15.7306 62.8966 15.2791L61.4824 13.8649C61.2298 14.1174 60.9293 14.3158 60.5701 14.4595L61.3129 16.3165ZM62.8886 15.287C63.345 14.8407 63.6976 14.3196 63.9415 13.7304L62.0935 12.9656C61.9533 13.3044 61.7539 13.5993 61.4904 13.857L62.8886 15.287ZM63.9382 13.7381C64.1952 13.1317 64.3175 12.4816 64.3175 11.8H62.3175C62.3175 12.2384 62.2398 12.6203 62.0967 12.9579L63.9382 13.7381ZM64.3175 11.8C64.3175 11.1187 64.1952 10.4701 63.9358 9.86817L62.0991 10.6598C62.2397 10.9859 62.3175 11.3613 62.3175 11.8H64.3175ZM63.9438 9.8872C63.7007 9.28965 63.3479 8.76213 62.8886 8.31299L61.4904 9.74301C61.751 9.99787 61.9502 10.2944 62.0912 10.6408L63.9438 9.8872ZM62.8966 8.32089C62.4451 7.86943 61.9137 7.52384 61.3129 7.28352L60.5701 9.14048C60.9293 9.28416 61.2298 9.48256 61.4824 9.73511L62.8966 8.32089ZM61.3129 7.28352C60.7052 7.04047 60.058 6.924 59.3815 6.924V8.924C59.8249 8.924 60.2177 8.99953 60.5701 9.14048L61.3129 7.28352ZM59.3815 6.924C58.711 6.924 58.068 7.04114 57.4621 7.28352L58.2049 9.14048C58.5589 8.99885 58.948 8.924 59.3815 8.924V6.924ZM57.4621 7.28352C56.8632 7.52308 56.331 7.86647 55.8744 8.31299L57.2726 9.74301C57.5359 9.48553 57.8437 9.28492 58.2049 9.14048L57.4621 7.28352ZM55.8664 8.32089C55.4207 8.76655 55.0734 9.28704 54.8247 9.87385L56.6662 10.6541C56.8176 10.297 57.0222 9.99345 57.2806 9.73511L55.8664 8.32089ZM54.8215 9.88165C54.5738 10.4801 54.4575 11.1239 54.4575 11.8H56.4575C56.4575 11.3561 56.5331 10.9759 56.6695 10.6464L54.8215 9.88165ZM54.4575 11.8C54.4575 12.4764 54.5739 13.1218 54.8192 13.7248L56.6718 12.9712C56.5331 12.6302 56.4575 12.2436 56.4575 11.8H54.4575ZM54.8271 13.7438C55.0765 14.3222 55.4235 14.8363 55.8664 15.2791L57.2806 13.8649C57.0194 13.6037 56.8145 13.3018 56.6638 12.9522L54.8271 13.7438ZM55.8744 15.287C56.331 15.7335 56.8632 16.0769 57.4621 16.3165L58.2049 14.4595C57.8437 14.3151 57.5359 14.1145 57.2726 13.857L55.8744 15.287ZM57.4621 16.3165C58.068 16.5589 58.711 16.676 59.3815 16.676V14.676C58.948 14.676 58.5589 14.6011 58.2049 14.4595L57.4621 16.3165ZM66.3644 16H65.3644V17H66.3644V16ZM66.3644 7.6V6.6H65.3644V7.6H66.3644ZM66.7004 7.6L67.567 7.10093L67.2785 6.6H66.7004V7.6ZM70.6604 14.476V15.476H72.3903L71.527 13.9769L70.6604 14.476ZM70.4804 14.476L69.6126 13.9792L68.7558 15.476H70.4804V14.476ZM74.4164 7.6V6.6H73.8366L73.5486 7.10321L74.4164 7.6ZM74.7524 7.6L75.7524 7.59857L75.751 6.6H74.7524V7.6ZM74.7644 16V17H75.7659L75.7644 15.9986L74.7644 16ZM74.3684 16L73.3684 16.0015L73.37 17H74.3684V16ZM74.3564 8.2V7.2H73.3549L73.3564 8.20154L74.3564 8.2ZM74.4884 8.2L75.3553 8.6985L76.217 7.2H74.4884V8.2ZM70.6724 14.836V15.836H71.2509L71.5393 15.3345L70.6724 14.836ZM70.4564 14.836L69.5909 15.3369L69.8797 15.836H70.4564V14.836ZM66.6164 8.2V7.2H64.8824L65.7509 8.70085L66.6164 8.2ZM66.7604 8.2H67.7604V7.2H66.7604V8.2ZM66.7604 16V17H67.7604V16H66.7604ZM67.3644 16V7.6H65.3644V16H67.3644ZM66.3644 8.6H66.7004V6.6H66.3644V8.6ZM65.8339 8.09907L69.7939 14.9751L71.527 13.9769L67.567 7.10093L65.8339 8.09907ZM70.6604 13.476H70.4804V15.476H70.6604V13.476ZM71.3483 14.9728L75.2843 8.09679L73.5486 7.10321L69.6126 13.9792L71.3483 14.9728ZM74.4164 8.6H74.7524V6.6H74.4164V8.6ZM73.7524 7.60143L73.7644 16.0014L75.7644 15.9986L75.7524 7.59857L73.7524 7.60143ZM74.7644 15H74.3684V17H74.7644V15ZM75.3684 15.9985L75.3564 8.19846L73.3564 8.20154L73.3684 16.0015L75.3684 15.9985ZM74.3564 9.2H74.4884V7.2H74.3564V9.2ZM73.6215 7.7015L69.8055 14.3375L71.5393 15.3345L75.3553 8.6985L73.6215 7.7015ZM70.6724 13.836H70.4564V15.836H70.6724V13.836ZM71.322 14.3351L67.482 7.69915L65.7509 8.70085L69.5909 15.3369L71.322 14.3351ZM66.6164 9.2H66.7604V7.2H66.6164V9.2ZM65.7604 8.2V16H67.7604V8.2H65.7604ZM66.7604 15H66.3644V17H66.7604V15ZM78.2571 16H77.2571V17H78.2571V16ZM78.2571 7.6V6.6H77.2571V7.6H78.2571ZM82.9611 7.936L82.5495 8.84739L82.555 8.84981L82.9611 7.936ZM84.1131 8.896L83.2687 9.43185L83.2735 9.43925L84.1131 8.896ZM84.1131 11.884L84.9574 12.4198H84.9574L84.1131 11.884ZM82.9611 12.844L82.5549 11.9302L82.5495 11.9326L82.9611 12.844ZM78.4851 13.18L77.7556 12.4961L76.1769 14.18H78.4851V13.18ZM78.6651 12.988H79.6651V10.4592L77.9356 12.3041L78.6651 12.988ZM78.6651 16V17H79.6651V16H78.6651ZM78.6651 12.988L77.958 13.6951L79.6651 15.4022V12.988H78.6651ZM78.4851 12.808V11.808H76.0709L77.778 13.5151L78.4851 12.808ZM83.3571 12.172L82.7133 11.4067L82.7073 11.4119L83.3571 12.172ZM83.3571 8.608L82.7073 9.36812L82.7139 9.37373L82.7205 9.37922L83.3571 8.608ZM78.4851 7.972L77.7556 7.28806L76.1769 8.972H78.4851V7.972ZM78.6651 7.78H79.6651V5.25121L77.9356 7.09606L78.6651 7.78ZM79.2571 16V7.6H77.2571V16H79.2571ZM78.2571 8.6H81.1731V6.6H78.2571V8.6ZM81.1731 8.6C81.7653 8.6 82.2136 8.69567 82.5495 8.84737L83.3727 7.02463C82.7166 6.72833 81.9729 6.6 81.1731 6.6V8.6ZM82.555 8.84981C82.9011 9.00366 83.1227 9.20172 83.2688 9.43182L84.9574 8.36018C84.5755 7.75828 84.0291 7.31634 83.3672 7.02219L82.555 8.84981ZM83.2735 9.43925C83.4133 9.65529 83.5091 9.95343 83.5091 10.384H85.5091C85.5091 9.64657 85.3409 8.95271 84.9527 8.35275L83.2735 9.43925ZM83.5091 10.384C83.5091 10.8139 83.4135 11.12 83.2688 11.3482L84.9574 12.4198C85.3406 11.816 85.5091 11.1221 85.5091 10.384H83.5091ZM83.2688 11.3482C83.1227 11.5783 82.9011 11.7763 82.555 11.9302L83.3672 13.7578C84.0291 13.4637 84.5755 13.0217 84.9574 12.4198L83.2688 11.3482ZM82.5495 11.9326C82.2136 12.0843 81.7653 12.18 81.1731 12.18V14.18C81.9729 14.18 82.7166 14.0517 83.3727 13.7554L82.5495 11.9326ZM81.1731 12.18H78.4851V14.18H81.1731V12.18ZM79.2146 13.8639L79.3946 13.6719L77.9356 12.3041L77.7556 12.4961L79.2146 13.8639ZM77.6651 12.988V16H79.6651V12.988H77.6651ZM78.6651 15H78.2571V17H78.6651V15ZM79.3722 12.2809L79.1922 12.1009L77.778 13.5151L77.958 13.6951L79.3722 12.2809ZM78.4851 13.808H81.1971V11.808H78.4851V13.808ZM81.1971 13.808C82.2751 13.808 83.2637 13.5674 84.0069 12.9321L82.7073 11.4119C82.4584 11.6246 82.0071 11.808 81.1971 11.808V13.808ZM84.0009 12.9372C84.7693 12.2907 85.1131 11.3927 85.1131 10.384H83.1131C83.1131 10.9113 82.9529 11.2053 82.7133 11.4068L84.0009 12.9372ZM85.1131 10.384C85.1131 9.37573 84.7692 8.4769 83.9937 7.83678L82.7205 9.37922C82.953 9.5711 83.1131 9.85627 83.1131 10.384H85.1131ZM84.0069 7.84788C83.2637 7.21263 82.2751 6.972 81.1971 6.972V8.972C82.0071 8.972 82.4584 9.15537 82.7073 9.36812L84.0069 7.84788ZM81.1971 6.972H78.4851V8.972H81.1971V6.972ZM79.2146 8.65594L79.3946 8.46394L77.9356 7.09606L77.7556 7.28806L79.2146 8.65594ZM77.6651 7.78V12.988H79.6651V7.78H77.6651ZM90.8003 16H89.8003V17H90.8003V16ZM90.8003 14.548H91.8003V14.5202L91.7987 14.4925L90.8003 14.548ZM90.7883 14.332H89.7883V14.3598L89.7898 14.3875L90.7883 14.332ZM90.2963 10.564L89.598 11.2798L90.2963 10.564ZM87.6203 10.324L87.9951 11.2511L88.0035 11.2477L88.0118 11.2442L87.6203 10.324ZM86.6483 10.924L85.8483 11.524L86.5087 12.4045L87.322 11.663L86.6483 10.924ZM86.4323 10.636L85.7451 9.90953L85.0971 10.5225L85.6323 11.236L86.4323 10.636ZM87.5243 9.976L87.8716 10.9137L87.8792 10.9109L87.8867 10.908L87.5243 9.976ZM90.5843 10.3L89.8845 11.0144L89.8919 11.0216L89.8994 11.0286L90.5843 10.3ZM91.1843 16V17H92.1843V16H91.1843ZM87.2723 15.82L86.8703 16.7357L86.8784 16.7391L87.2723 15.82ZM86.5163 15.208L85.6766 15.7513L85.6842 15.7627L86.5163 15.208ZM86.4683 13.444L87.3399 13.9343L87.3462 13.9229L86.4683 13.444ZM87.1763 12.82L87.5968 13.7274L87.6062 13.7229L87.1763 12.82ZM90.9323 12.58H91.9323V11.58H90.9323V12.58ZM90.9323 12.904V13.904H91.9323V12.904H90.9323ZM87.0683 13.288L86.4039 12.5405L86.3935 12.55L87.0683 13.288ZM87.1403 15.316L86.5133 16.095L86.5191 16.0997L86.525 16.1043L87.1403 15.316ZM89.9363 15.316L90.4991 16.1426L90.505 16.1385L90.5109 16.1344L89.9363 15.316ZM90.7883 14.2L91.6827 13.7528L90.6868 11.761L89.8598 13.8286L90.7883 14.2ZM90.9203 14.464L91.8673 14.785L92.0013 14.3899L91.8147 14.0168L90.9203 14.464ZM90.0563 15.604L89.4871 14.7818L90.0563 15.604ZM91.8003 16V14.548H89.8003V16H91.8003ZM91.7987 14.4925L91.7867 14.2765L89.7898 14.3875L89.8018 14.6035L91.7987 14.4925ZM91.7883 14.332V11.968H89.7883V14.332H91.7883ZM91.7883 11.968C91.7883 11.1784 91.5748 10.4143 90.9946 9.84822L89.598 11.2798C89.6738 11.3537 89.7883 11.5256 89.7883 11.968H91.7883ZM90.9946 9.84822C90.4206 9.28824 89.6568 9.084 88.8683 9.084V11.084C89.3278 11.084 89.5159 11.1998 89.598 11.2798L90.9946 9.84822ZM88.8683 9.084C88.2933 9.084 87.7421 9.18537 87.2287 9.40385L88.0118 11.2442C88.2504 11.1426 88.5312 11.084 88.8683 11.084V9.084ZM87.2455 9.39689C86.7706 9.58885 86.3427 9.84934 85.9745 10.185L87.322 11.663C87.4978 11.5027 87.7179 11.3631 87.9951 11.2511L87.2455 9.39689ZM87.4483 10.324L87.2323 10.036L85.6323 11.236L85.8483 11.524L87.4483 10.324ZM87.1195 11.3625C87.3056 11.1864 87.5495 11.033 87.8716 10.9137L87.177 9.03825C86.6351 9.23896 86.151 9.52557 85.7451 9.90953L87.1195 11.3625ZM87.8867 10.908C88.201 10.7858 88.5299 10.724 88.8803 10.724V8.724C88.2866 8.724 87.7115 8.83022 87.1618 9.04399L87.8867 10.908ZM88.8803 10.724C89.4579 10.724 89.7379 10.8708 89.8845 11.0144L91.2841 9.58564C90.6466 8.96121 89.7906 8.724 88.8803 8.724V10.724ZM89.8994 11.0286C90.0367 11.1577 90.1843 11.4101 90.1843 11.968H92.1843C92.1843 11.0539 91.9319 10.1943 91.2692 9.57137L89.8994 11.0286ZM90.1843 11.968V16H92.1843V11.968H90.1843ZM91.1843 15H90.8003V17H91.1843V15ZM88.4843 15.036C88.11 15.036 87.8472 14.9784 87.6662 14.9009L86.8784 16.7391C87.3694 16.9496 87.9146 17.036 88.4843 17.036V15.036ZM87.6743 14.9044C87.4979 14.8269 87.4051 14.7385 87.3483 14.6533L85.6842 15.7627C85.9794 16.2055 86.3906 16.5251 86.8703 16.7356L87.6743 14.9044ZM87.3559 14.6647C87.2912 14.5648 87.2523 14.4477 87.2523 14.284H85.2523C85.2523 14.8083 85.3894 15.3072 85.6767 15.7513L87.3559 14.6647ZM87.2523 14.284C87.2523 14.1455 87.2831 14.0352 87.3399 13.9343L85.5967 12.9537C85.3655 13.3648 85.2523 13.8145 85.2523 14.284H87.2523ZM87.3462 13.9229C87.3681 13.8826 87.4229 13.8079 87.5967 13.7273L86.7558 11.9127C86.2737 12.1361 85.8564 12.4774 85.5904 12.9651L87.3462 13.9229ZM87.6062 13.7229C87.7574 13.6509 88.0406 13.58 88.5203 13.58V11.58C87.88 11.58 87.2671 11.6691 86.7463 11.9171L87.6062 13.7229ZM88.5203 13.58H90.9323V11.58H88.5203V13.58ZM89.9323 12.58V12.904H91.9323V12.58H89.9323ZM90.9323 11.904H88.5203V13.904H90.9323V11.904ZM88.5203 11.904C87.7651 11.904 86.9711 12.0364 86.4039 12.5406L87.7326 14.0354C87.7298 14.038 87.7687 14.0023 87.903 13.9668C88.0378 13.9311 88.238 13.904 88.5203 13.904V11.904ZM86.3935 12.55C85.8986 13.0024 85.6483 13.5978 85.6483 14.26H87.6483C87.6483 14.1382 87.6779 14.0856 87.743 14.026L86.3935 12.55ZM85.6483 14.26C85.6483 14.987 85.9374 15.6315 86.5133 16.095L87.7673 14.537C87.6871 14.4725 87.6483 14.413 87.6483 14.26H85.6483ZM86.525 16.1043C87.0875 16.5433 87.7895 16.7 88.5083 16.7V14.7C88.0591 14.7 87.8491 14.6007 87.7556 14.5277L86.525 16.1043ZM88.5083 16.7C89.2316 16.7 89.9179 16.5383 90.4991 16.1426L89.3735 14.4894C89.2027 14.6057 88.937 14.7 88.5083 14.7V16.7ZM90.5109 16.1344C91.0651 15.7453 91.462 15.2083 91.7168 14.5714L89.8598 13.8286C89.7306 14.1517 89.5595 14.3587 89.3617 14.4976L90.5109 16.1344ZM89.8939 14.6472L90.0259 14.9112L91.8147 14.0168L91.6827 13.7528L89.8939 14.6472ZM89.9732 14.143C89.8832 14.4084 89.7295 14.614 89.4871 14.7818L90.6255 16.4262C91.2151 16.018 91.6373 15.4636 91.8673 14.785L89.9732 14.143ZM89.4871 14.7818C89.2758 14.9281 88.9639 15.036 88.4843 15.036V17.036C89.2687 17.036 90.0047 16.8559 90.6255 16.4262L89.4871 14.7818ZM93.0126 18.22L93.384 17.2915L93.3705 17.2861L93.3568 17.2811L93.0126 18.22ZM92.4006 17.812L91.5932 17.222L91.1107 17.8823L91.6621 18.4863L92.4006 17.812ZM92.6286 17.5L93.3519 16.8095L92.5265 15.9448L91.8212 16.91L92.6286 17.5ZM93.1566 17.884L93.588 16.9819L93.5718 16.9741L93.5553 16.9669L93.1566 17.884ZM94.5966 17.764L94.0101 16.9541L94.5966 17.764ZM95.2446 16.84L94.3372 16.4195L94.3315 16.4323L95.2446 16.84ZM95.7006 15.856L94.8526 15.326L94.8195 15.3789L94.7933 15.4355L95.7006 15.856ZM95.7606 15.76L96.6086 16.29L96.644 16.2334L96.6715 16.1726L95.7606 15.76ZM98.4726 9.772V8.772H97.8277L97.5617 9.35943L98.4726 9.772ZM98.8926 9.772L99.8026 10.1866L100.447 8.772H98.8926V9.772ZM95.6286 16.936L94.7186 16.5214L94.7182 16.5222L95.6286 16.936ZM95.1006 17.776L94.3658 17.0977L94.3523 17.1124L94.3393 17.1275L95.1006 17.776ZM94.5006 18.232L94.1233 17.3059V17.3059L94.5006 18.232ZM95.7126 16.144L94.8026 16.5587L95.6219 18.3563L96.5855 16.6318L95.7126 16.144ZM92.8086 9.772V8.772H91.2539L91.8986 10.1867L92.8086 9.772ZM93.2406 9.772L94.1516 9.35958L93.8856 8.772H93.2406V9.772ZM95.9406 15.736L96.8135 16.2238L97.0597 15.7833L96.8516 15.3236L95.9406 15.736ZM93.7926 17.364C93.6292 17.364 93.4964 17.3365 93.384 17.2915L92.6412 19.1485C93.0088 19.2955 93.396 19.364 93.7926 19.364V17.364ZM93.3568 17.2811C93.2635 17.2469 93.1959 17.2 93.1391 17.1377L91.6621 18.4863C91.9412 18.792 92.2817 19.0171 92.6683 19.1589L93.3568 17.2811ZM93.208 18.402L93.436 18.09L91.8212 16.91L91.5932 17.222L93.208 18.402ZM91.9052 18.1905C92.1462 18.4429 92.4286 18.6579 92.7579 18.8011L93.5553 16.9669C93.5166 16.9501 93.447 16.9091 93.3519 16.8095L91.9052 18.1905ZM92.7251 18.7861C93.0656 18.949 93.4295 19.016 93.7926 19.016V17.016C93.6757 17.016 93.6156 16.995 93.588 16.9819L92.7251 18.7861ZM93.7926 19.016C94.2935 19.016 94.7697 18.8733 95.1831 18.5739L94.0101 16.9541C93.9595 16.9907 93.8997 17.016 93.7926 17.016V19.016ZM95.1831 18.5739C95.6257 18.2534 95.9309 17.7559 96.1577 17.2477L94.3315 16.4323C94.1583 16.8201 94.0314 16.9386 94.0101 16.9541L95.1831 18.5739ZM96.1519 17.2605L96.6079 16.2765L94.7933 15.4355L94.3373 16.4195L96.1519 17.2605ZM96.5486 16.386L96.6086 16.29L94.9126 15.23L94.8526 15.326L96.5486 16.386ZM96.6715 16.1726L99.3835 10.1846L97.5617 9.35943L94.8497 15.3474L96.6715 16.1726ZM98.4726 10.772H98.8926V8.772H98.4726V10.772ZM97.9826 9.35739L94.7186 16.5214L96.5386 17.3506L99.8026 10.1866L97.9826 9.35739ZM94.7182 16.5222C94.5873 16.8102 94.4646 16.9907 94.3658 17.0977L95.8354 18.4543C96.1206 18.1453 96.3499 17.7658 96.539 17.3498L94.7182 16.5222ZM94.3393 17.1275C94.237 17.2477 94.1621 17.2901 94.1233 17.3059L94.8779 19.1581C95.2711 18.9979 95.5962 18.7363 95.8618 18.4245L94.3393 17.1275ZM94.1233 17.3059C94.0383 17.3405 93.9319 17.364 93.7926 17.364V19.364C94.1653 19.364 94.5309 19.2995 94.8779 19.1581L94.1233 17.3059ZM96.6225 15.7293L93.7185 9.35729L91.8986 10.1867L94.8026 16.5587L96.6225 15.7293ZM92.8086 10.772H93.2406V8.772H92.8086V10.772ZM92.3296 10.1844L95.0296 16.1484L96.8516 15.3236L94.1516 9.35958L92.3296 10.1844ZM95.0676 15.2482L94.8396 15.6562L96.5855 16.6318L96.8135 16.2238L95.0676 15.2482Z" fill="black"/>
</g>
<defs>
<filter id="filter0_d_48_3" x="32.1279" y="7.35999" width="70.7646" height="19.004" filterUnits="userSpaceOnUse" color-interpolation-filters="sRGB">
<feFlood flood-opacity="0" result="BackgroundImageFix"/>
<feColorMatrix in="SourceAlpha" type="matrix" values="0 0 0 0 0 0 0 0 0 0 0 0 0 0 0 0 0 0 127 0" result="hardAlpha"/>
<feOffset dy="4"/>
<feGaussianBlur stdDeviation="2"/>
<feComposite in2="hardAlpha" operator="out"/>
<feColorMatrix type="matrix" values="0 0 0 0 0 0 0 0 0 0 0 0 0 0 0 0 0 0 0.25 0"/>
<feBlend mode="normal" in2="BackgroundImageFix" result="effect1_dropShadow_48_3"/>
<feBlend mode="normal" in="SourceGraphic" in2="effect1_dropShadow_48_3" result="shape"/>
</filter>
<linearGradient id="paint0_linear_48_3" x1="14.2055" y1="0.806569" x2="24.4957" y2="20.3832" gradientUnits="userSpaceOnUse">
<stop stop-color="#D5AC5C"/>
<stop offset="0.28674" stop-color="#42A0A9"/>
<stop offset="0.627158" stop-color="#0454D3"/>
</linearGradient>
<linearGradient id="paint1_linear_48_3" x1="12.9957" y1="0.400024" x2="12.9957" y2="23.3925" gradientUnits="userSpaceOnUse">
<stop stop-color="#0459E1"/>
<stop offset="0.276042" stop-color="#0280B2"/>
<stop offset="0.505208" stop-color="#4BA4A7"/>
<stop offset="0.682292" stop-color="#A3B484"/>
<stop offset="1" stop-color="#DEAA54"/>
</linearGradient>
<linearGradient id="paint2_linear_48_3" x1="6.65167" y1="6.24426" x2="6.65167" y2="8.85879" gradientUnits="userSpaceOnUse">
<stop stop-color="white"/>
<stop offset="1" stop-color="white"/>
</linearGradient>
<linearGradient id="paint3_linear_48_3" x1="6.63245" y1="19.1631" x2="6.63245" y2="16.5486" gradientUnits="userSpaceOnUse">
<stop stop-color="white"/>
<stop offset="1" stop-color="white"/>
</linearGradient>
<linearGradient id="paint4_linear_48_3" x1="8.45877" y1="11.8578" x2="8.45877" y2="13.5495" gradientUnits="userSpaceOnUse">
<stop stop-color="white"/>
<stop offset="1" stop-color="white"/>
</linearGradient>
<linearGradient id="paint5_linear_48_3" x1="8.43955" y1="13.5496" x2="8.43955" y2="11.8578" gradientUnits="userSpaceOnUse">
<stop stop-color="white"/>
<stop offset="1" stop-color="white"/>
</linearGradient>
</defs>
</svg>
